# xmcd CD database file
#
# Track frame offsets:
#	150
#	23692
#	39897
#	55397
#	87382
#	109420
#	131222
#	148842
#	172285
#	192487
#	212772
#	237927
#
# Disc length: 3561 seconds
#
# Revision: 10
# Processed by: cddbd v1.5PL3 Copyright (c) Steve Scherf et al.
# Submitted via: CDex 1.51
#
DISCID=b70de70c
DTITLE=GLAY - DRIVE GLAY complete BEST  Disc1
DYEAR=2000
DGENRE=Rock
TTITLE0=とまどい (Jet the Phantom)
TTITLE1=口唇
TTITLE2=SHUTTER SPEEDSのテーマ
TTITLE3=ずっと２人で・・・
TTITLE4=グロリアス
TTITLE5=a Boy 〜ずっと忘れない〜
TTITLE6=生きてく強さ
TTITLE7=HAPPY SWING
TTITLE8=彼女の ”Modern・・・"
TTITLE9=SOUL LOVE
TTITLE10=HOWEVER
TTITLE11=I'm in Love
EXTD=YEAR: 2000
EXTT0=
EXTT1=
EXTT2=
EXTT3=
EXTT4=
EXTT5=
EXTT6=
EXTT7=
EXTT8=
EXTT9=
EXTT10=
EXTT11=
PLAYORDER=
